<?xml version="1.0" encoding="utf-8"?>
<!-- Generator: Adobe Illustrator 23.0.1, SVG Export Plug-In . SVG Version: 6.00 Build 0)  -->
<svg version="1.1" id="Calque_1" xmlns="http://www.w3.org/2000/svg" xmlns:xlink="http://www.w3.org/1999/xlink" x="0px" y="0px"
	 viewBox="0 0 1800 1800" style="enable-background:new 0 0 1800 1800;" xml:space="preserve">
<style type="text/css">
	.st0{fill:#10AF9C;}
	.st1{fill:#E73D62;}
	.st2{fill:#FFFFFF;}
</style>
<g>
	<g>
		<path d="M1800.1,899.9c0,497.1-403,900.1-900.1,900.1c-19.6,0-39.1-0.6-58.4-1.9c-27-1.8-53.7-4.7-80.1-8.7
			c-236.9-36.6-443.4-165.6-581.3-349c-15-19.8-29-40.3-42.3-61.3C50.6,1240.3,0,1076,0,899.9C0,402.8,403-0.1,900.1-0.1
			c72.4,0,142.7,8.5,210.1,24.7c24.3,5.8,48.3,12.6,71.8,20.3c224,73.8,409,233.1,516.5,439.2c12.4,23.7,23.7,48,34,72.9
			C1776.1,662.7,1800.1,778.5,1800.1,899.9z"/>
	</g>
	<g>
		<g>
			<path class="st0" d="M1182,44.9L678.2,746.7L555.8,917.2l-375.5,523.2c-15-19.8-29-40.3-42.3-61.3l290.1-404.2h0.1l60.3-84
				l5.8-8.2l3.6-4.9l4.7-6.6l35-48.7l18.2-25.4l32.9-45.9l521.5-726.5C1134.5,30.4,1158.5,37.2,1182,44.9z"/>
		</g>
	</g>
	<g>
		<g>
			<path class="st1" d="M1732.5,557l-166.9,232.5l-48,66.9l-44.1,61.5l-16.9,23.5l-614.9,856.6c-27-1.8-53.7-4.7-80.1-8.7
				l586.3-816.8l53.5-74.6l9.2-12.8l37.2-51.9l8.6-12l14.6-20.3l14.4-20l21.6-30.2l191.4-266.6
				C1710.9,507.8,1722.2,532.1,1732.5,557z"/>
		</g>
	</g>
	<g>
		<g>
			<path class="st2" d="M198.5,746.7c-17.1,0-38.6,5.2-56.2,18.7l-1.6-14.3H74.5v302H145v-92.1c16.6,10.2,37.5,14.2,55.1,14.2
				c65.2,0,110.7-47,110.7-114.3C310.8,794.8,263.5,746.7,198.5,746.7z M194.9,906.5c-26.3,0-45.4-19.1-45.4-45.5
				c0-22.6,14-45.5,45.4-45.5c31.4,0,45.5,22.9,45.5,45.5C240.3,887.4,221.2,906.5,194.9,906.5z"/>
		</g>
		<g>
			<path class="st2" d="M537.5,822.4c-5.4-16.8-14.6-31.6-26.6-43.4c0-0.1,0-0.1,0-0.1c-2.3-2.3-4.8-4.6-7.4-6.7
				c-19.5-16-45.1-25.2-74.2-25.2c-65.6,0-113.1,47.9-113.1,113.9c0,66.6,45.9,113.2,111.9,113.9h0.1c0.5,0.1,1.1,0.1,1.6,0.1
				c67,0,113.9-46.8,113.9-113.9C543.5,847.3,541.4,834.3,537.5,822.4z M386.6,861c0-23,13.5-47.9,43.1-47.9c26.9,0,43,24.4,43,47.9
				c0,23.6-13.3,47.5-43,47.5C399.9,908.5,386.6,884.6,386.6,861z"/>
		</g>
		<g>
			<path class="st2" d="M679.7,746.7h-1.5c-16.8,0.3-37.6,5.6-54.6,18.7l-1.7-14.3h-66.1v302h70.5v-92.1
				c16.6,10.2,37.5,14.2,55.1,14.2c65.2,0,110.7-47,110.7-114.3C792,794.8,744.8,746.7,679.7,746.7z M676.1,906.5
				c-26.3,0-45.4-19.1-45.4-45.5c0-22.6,14-45.5,45.4-45.5c31.4,0,45.5,22.9,45.5,45.5C721.6,887.4,702.5,906.5,676.1,906.5z"/>
		</g>
		<g>
			<path class="st2" d="M1153.3,747.9c-20.5,0-38.9,6.2-56.7,19.2l-2-16.4h-64v0.4h-75.1l-39,93.7l-9.9,26.3l-41.9-120h-80.6
				l83.4,205.3l-41.6,96.8h77.2l127.5-296v213.3h70.1V858.6c0-25.4,17.1-44.6,39.8-44.6c34.3,0,37,32.3,37,42.2v114.3h70.5V855.8
				C1248,791.3,1210,747.9,1153.3,747.9z"/>
		</g>
		<g>
			<path class="st2" d="M1471.1,800.9c-4-7-8.9-13.4-14.4-19.2c-2.3-2.5-4.8-5-7.5-7.2c-19.9-17.4-46.3-27.4-76.7-27.4
				c-65.5,0-113.1,47.9-113.1,113.9c0,58.4,35.4,101.4,88.5,111.6c7.9,1.6,16.2,2.3,25,2.3c34.4,0,63.5-12.3,83.7-33.4
				c6.7-6.9,12.3-14.8,16.9-23.5c8.6-16.4,13.3-35.7,13.3-57C1486.8,838.4,1481.2,818,1471.1,800.9z M1401.5,897.9
				c-6.9,6.5-16.4,10.5-28.6,10.5c-29.7,0-43-23.8-43-47.5c0-23,13.4-47.9,43-47.9c26.9,0,43,24.4,43,47.9c0,8.4-1.7,16.8-5.2,24.1
				C1408.5,890,1405.4,894.4,1401.5,897.9z"/>
		</g>
		<g>
			<polygon class="st2" points="1650.3,750.7 1620.1,824 1600.1,879 1579.5,822.8 1549.4,750.7 1472.6,750.7 1566.5,971.3 
				1633.7,971.3 1727.1,750.7 			"/>
		</g>
	</g>
	<g>
		<g>
			<path d="M494.5,882.8l-4.6-5.5c16.5-13.7,15.3-82.9,13.5-106.6l7.3,4.4C511.4,784.2,516.7,864.2,494.5,882.8z"/>
		</g>
	</g>
	<g>
		<path d="M483.3,894.8l-8-9.2c-0.1-0.2-0.1-0.4,0-0.6l16.3-14.2c0.2-0.1,0.4-0.1,0.6,0l8,9.2c0.1,0.2,0.1,0.4,0,0.6l-16.3,14.2
			C483.7,894.9,483.5,894.9,483.3,894.8z"/>
	</g>
	<g>
		<g>
			<path d="M1439.9,878l-4.6-5.5c16.5-13.7,15.3-82.9,13.5-106.6l7.3,4.4C1456.8,779.4,1462.2,859.4,1439.9,878z"/>
		</g>
	</g>
	<g>
		<path d="M1428.7,890l-8-9.2c-0.1-0.2-0.1-0.4,0-0.6L1437,866c0.2-0.1,0.4-0.1,0.6,0l8,9.2c0.1,0.2,0.1,0.4,0,0.6l-16.3,14.2
			C1429.1,890.1,1428.9,890.1,1428.7,890z"/>
	</g>
	<g>
		<circle class="st2" cx="1373.1" cy="861" r="4.9"/>
	</g>
	<g>
		<circle class="st2" cx="429.9" cy="861" r="4.9"/>
	</g>
</g>
</svg>
